<svg xmlns="http://www.w3.org/2000/svg" viewBox="0 0 1080 979.7"><style type="text/css">#left-eye{animation:left 30s linear infinite normal forwards}@keyframes left{0%{transform:translate(490.099976px,714.300018px) scale(1,1)}1%{transform:translate(490.099976px,714.300018px) scale(.8,.9)}2.33%{transform:translate(490.099976px,714.300018px) scale(1,1)}100%{transform:translate(490.099976px,714.300018px) scale(1,1)}}#right-eye{animation:right 30s linear infinite normal forwards}@keyframes right{0%{transform:translate(888.700012px,714.300018px) scale(1,1)}1%{transform:translate(888.700012px,714.300018px) scale(1,1)}2%{transform:translate(888.700012px,714.300018px) scale(.8,.8)}3.33%{transform:translate(888.700012px,714.300018px) scale(1,1)}100%{transform:translate(888.700012px,714.300018px) scale(1,1)}}</style><g id="logo"><path d="M77.5,959.5c5.3-8,10.6-16,16-23.9c14.5-21.7,28.9-43.4,43.4-65.1c21.5-32.3,43-64.5,64.5-96.8c26.1-39.2,52.3-78.4,78.4-117.6c28.6-43,57.3-85.9,85.9-128.9c28.9-43.4,57.8-86.7,86.7-130.1c27.1-40.6,54.1-81.2,81.2-121.8c22.8-34.2,45.5-68.3,68.3-102.5c16.4-24.6,32.8-49.1,49.1-73.7c7.8-11.6,15.8-23.2,23.3-35c.3-.5.7-1,1-1.5c12.1-18.1,4.1-46.8-14.9-56.8-20.9-11-43.9-4.4-56.8,14.9-5.3,8-10.6,16-16,23.9-14.5,21.7-28.9,43.4-43.4,65.1-21.5,32.3-43,64.5-64.5,96.8-26.1,39.2-52.3,78.4-78.4,117.6-28.6,43-57.3,85.9-85.9,128.9-28.9,43.4-57.8,86.7-86.7,130.1-27.1,40.6-54.1,81.2-81.2,121.8C124.8,739,102,773.2,79.2,807.4C62.8,832,46.4,856.5,30.1,881.1c-7.8,11.6-15.8,23.2-23.3,35-.3.5-.7,1-1,1.5-12.1,18.1-4.1,46.8,14.9,56.8c20.8,11,43.9,4.4,56.8-14.9Z"/><path d="M598,41.6v524.5c0,24.2-.5,48.4,0,72.5v1c0,21.7,19.1,42.5,41.5,41.5c22.5-1,41.5-18.2,41.5-41.5v-524.5c0-24.2.5-48.4,0-72.5v-1C681.1,19.8,662,-1,639.6,0C617.1,1,598,18.3,598,41.6Z"/><path d="M675.4,660.5L715,601.1c31.7-47.6,63.4-95.1,95.1-142.7c38.4-57.6,76.8-115.1,115.1-172.7l99.6-149.4c16.1-24.2,33-48.1,48.5-72.7.2-.4.5-.7.7-1c12.1-18.1,4.1-46.8-14.9-56.8-20.9-11-43.9-4.4-56.8,14.9C989.2,40.4,976,60.2,962.8,80c-31.7,47.6-63.4,95.1-95.1,142.7-38.4,57.6-76.8,115.1-115.1,172.7L653,544.8c-16.1,24.2-33,48.1-48.5,72.7-.2.4-.5.7-.7,1-12.1,18.1-4.1,46.8,14.9,56.8c20.8,11.1,43.8,4.5,56.7-14.8Z"/><path d="M1079.7,639.5v-524.5c0-24.2.5-48.4,0-72.5v-1c0-21.7-19.1-42.5-41.5-41.5-22.5,1-41.5,18.2-41.5,41.5v524.5c0,24.2-.5,48.4,0,72.5v1c0,21.7,19.1,42.5,41.5,41.5c22.5-.9,41.5-18.2,41.5-41.5Z"/><g id="right-eye"><path d="M448.6,602.2v224.2c0,21.7,19.1,42.5,41.5,41.5c22.5-1,41.5-18.2,41.5-41.5v-224.2c0-21.7-19.1-42.5-41.5-41.5-22.5.9-41.5,18.2-41.5,41.5Z" transform="translate(-490.099976,-714.300018)"/></g><g id="left-eye"><path d="M847.2,602.2v224.2c0,21.7,19.1,42.5,41.5,41.5c22.5-1,41.5-18.2,41.5-41.5v-224.2c0-21.7-19.1-42.5-41.5-41.5-22.5.9-41.5,18.2-41.5,41.5Z" transform="translate(-888.700012,-714.300018)"/></g></g></svg>