<svg xmlns="http://www.w3.org/2000/svg" viewBox="0 0 1080 979.78"><g id="logo"><path d="M77.44,959.53l16-23.93,43.42-65.13,64.56-96.83L279.8,656l85.91-128.87L452.43,397l81.22-121.82L602,172.73,651.16,99c7.77-11.65,15.79-23.17,23.32-35,.32-.52.67-1,1-1.52,12.08-18.12,4.13-46.77-14.9-56.83-20.88-11-43.92-4.44-56.81,14.91l-16,23.93-43.42,65.12-64.54,96.85L401.38,324.13,315.47,453,228.75,583.07,147.53,704.89,79.2,807.39,30.05,881.12c-7.76,11.65-15.78,23.17-23.31,35-.33.51-.68,1-1,1.52-12.08,18.11-4.13,46.76,14.9,56.81,20.88,11,43.92,4.44,56.81-14.89Z"/><path d="M598.07,41.56V566c0,24.16-.52,48.39,0,72.55v1c0,21.73,19.1,42.54,41.52,41.53s41.53-18.19,41.53-41.52V115.12c0-24.16.52-48.39,0-72.55v-1C681.12,19.85,662-1,639.59,0S598.07,18.28,598.07,41.56Z"/><path d="M675.45,660.53,715,601.1l95.15-142.71,115.17-172.7,99.59-149.38c16.14-24.21,33-48.09,48.49-72.74.23-.36.47-.7.7-1,12.08-18.12,4.13-46.77-14.9-56.83-20.88-11-43.92-4.44-56.81,14.91L962.79,80.06,867.65,222.73,752.51,395.42,652.93,544.81c-16.14,24.21-33,48.08-48.49,72.74l-.7,1.05c-12.08,18.11-4.13,46.77,14.89,56.82,20.89,11,43.93,4.44,56.82-14.89Z"/><path d="M1079.77,639.56V115.12c0-24.16.52-48.39,0-72.55v-1c0-21.72-19.1-42.54-41.53-41.54s-41.49,18.25-41.49,41.53V566c0,24.16-.52,48.39,0,72.55v1c0,21.73,19.12,42.54,41.54,41.53s41.53-18.24,41.53-41.53Z"/><path d="M448.56,602.18V826.43c0,21.73,19.1,42.55,41.53,41.54s41.53-18.25,41.53-41.54V602.18c0-21.72-19.11-42.53-41.53-41.52S448.56,578.88,448.56,602.18Z"/><path d="M847.23,602.18V826.43c0,21.73,19.1,42.55,41.53,41.54s41.53-18.25,41.53-41.54V602.18c0-21.72-19.11-42.53-41.53-41.52S847.23,578.88,847.23,602.18Z"/></g></svg>